<svg xmlns="http://www.w3.org/2000/svg" viewBox="0 0 715.49 1042.8"><defs><style>.cls-1{fill:#f9a56f;}.cls-2{fill:#f37e98;}.cls-3{fill:#f37b6f;}.cls-4{fill:#6baed8;}.cls-5{fill:#49bfae;}.cls-6{fill:#373838;}</style></defs><g id="Layer_2" data-name="Layer 2"><g id="Layer_1-2" data-name="Layer 1"><path class="cls-1" d="M62.89,1036.58a36.19,36.19,0,0,0,14-10.81,25.53,25.53,0,0,0,4.92-11.14,32.23,32.23,0,0,0,0-10.69,26.45,26.45,0,0,0-7.16-14.18,49.62,49.62,0,0,0-10.92-8.44c-5.17-3.08-10.43-6-15.67-9a57.55,57.55,0,0,1-14.4-11.08,32.53,32.53,0,0,1-7.68-12.93,16.13,16.13,0,0,1-.3-9.08,10.9,10.9,0,0,1,6.53-7.35,18.51,18.51,0,0,1,7.13-1.34,9.17,9.17,0,0,1,4.08.93,6.24,6.24,0,0,1,3.08,3.06,8.81,8.81,0,0,1,.84,5.23A25.23,25.23,0,0,1,46,945.21a16.13,16.13,0,0,0-1,3.7,14.19,14.19,0,0,0,3.63,12.28c5.15,5.53,11.56,7.27,18.74,5.13,6.28-1.88,10.08-6.37,11.43-12.78a20.47,20.47,0,0,0,0-7.28,13.25,13.25,0,0,0-.48-2,23.56,23.56,0,0,0-6.48-10.28A35.6,35.6,0,0,0,57,925.83,55.59,55.59,0,0,0,47.75,924a51.93,51.93,0,0,0-19.08,1,27,27,0,0,0-6,2l.06,0-.92.36h0l-.13.1c-1.21.57-2.45,1.08-3.62,1.73a37.15,37.15,0,0,0-12.54,11.1A29.32,29.32,0,0,0,.52,952a28.69,28.69,0,0,0,3.82,20.67,38.44,38.44,0,0,0,7.47,9,76.84,76.84,0,0,0,9.52,7.12,50.16,50.16,0,0,0,5.44,3.71A16.15,16.15,0,0,0,30,994.36l.89.6.33.18.4.23.34.16.42.31a1.17,1.17,0,0,0,.67.48h0l.64.37a.22.22,0,0,0,.22.16c.61.45,1.21.94,1.85,1.35,3.38,2.21,6.74,4.44,9.9,6.95a38.56,38.56,0,0,1,5.33,5,14.16,14.16,0,0,1,2.46,4.1,9.45,9.45,0,0,1-.32,7.8,14.65,14.65,0,0,1-4.64,5.3,20.78,20.78,0,0,1-7.61,3.53,20.35,20.35,0,0,1-11.92-.32,14,14,0,0,1-8.34-7.73,20.27,20.27,0,0,1-1.69-7.25,7.87,7.87,0,0,0-.62-3.55,1.69,1.69,0,0,0-.4-1.52h0a.46.46,0,0,1-.28-.52.28.28,0,0,0-.1-.24.68.68,0,0,1-.4-.75,7.63,7.63,0,0,0-5.71-3.79,8,8,0,0,0-9,7,15.74,15.74,0,0,0,1.16,8.08,30.58,30.58,0,0,0,13,15.15,2.56,2.56,0,0,0,1.23.49v0c.12.12.26.23.4.35a.89.89,0,0,0,.92.41l.71.38H20l.64.33s.05.09.05.09l.1,0c.19.11.39.21.59.31a.16.16,0,0,0,.26.08l1.26.5a.86.86,0,0,0,.95.27l.52.21a8.93,8.93,0,0,0,2.33.85,49.34,49.34,0,0,0,8.69,1.56,54.49,54.49,0,0,0,13.8-.48,51.2,51.2,0,0,0,13.75-4.13"/><path class="cls-1" d="M360.65,1042a31.81,31.81,0,0,0,16.21-8.63,27.82,27.82,0,0,0,6.16-9.42,40,40,0,0,0,2.79-15.21q0-42.42,0-84.82c0-.51,0-1,0-1.53a1.55,1.55,0,0,0-.4-1.25,16.11,16.11,0,0,0-3.55-.77,21.88,21.88,0,0,0-9.15.3A10.3,10.3,0,0,0,365,928a15,15,0,0,0-.53,4.36c0,10.65,0,21.28,0,31.92a54,54,0,0,1-1.42,13,29.39,29.39,0,0,1-3.33,8.14,13.45,13.45,0,0,1-4.62,4.8,6.92,6.92,0,0,1-7.95-.15,11.23,11.23,0,0,1-2.83-2.84A25,25,0,0,1,340.7,979a61.67,61.67,0,0,1-1.84-15.42c-.07-6.35,0-12.69,0-19a4,4,0,0,0-.19-2,14.78,14.78,0,0,0-5.64-1c-.76-.07-1.53-.18-2.3-.18a17.28,17.28,0,0,0-7.66,1.5,9.93,9.93,0,0,0-5.11,5.7,17.12,17.12,0,0,0-.91,6c0,5.32-.14,10.63.13,16a42.51,42.51,0,0,0,4,16.71,26.59,26.59,0,0,0,10.74,11.93,8,8,0,0,0,1,.65,21.05,21.05,0,0,0,8.22,2.45,21.42,21.42,0,0,0,17-6,26.54,26.54,0,0,0,5.78-7.83c.1-.21.18-.49.5-.46.06,0,.17,0,.17.08,0,.58.09,1.15.09,1.72,0,8.85,0,17.68,0,26.52,0,2.24-.13,4.49-.34,6.71a40.53,40.53,0,0,1-1.29,7.17,17.52,17.52,0,0,1-2.25,5.08,8.44,8.44,0,0,1-6.47,4,5.18,5.18,0,0,1-5.58-3.46,9.87,9.87,0,0,1-.41-5.66c.26-1.25.6-2.49,1-3.71a10.84,10.84,0,0,0,.22-5.33,12.55,12.55,0,0,0-12.83-9.7,6.28,6.28,0,0,0-3.83,1,10.25,10.25,0,0,0-7.08,7.35,13.24,13.24,0,0,0,.41,8.27,17.44,17.44,0,0,0,6.18,8.3,10,10,0,0,0,3.46,2.29l.12.08.72.34h0a13.24,13.24,0,0,0,1.15.67,32.38,32.38,0,0,0,9.57,2.74,38.1,38.1,0,0,0,13.38-.48"/><path class="cls-1" d="M580,926.5l-.88.38-.12,0V927a13.51,13.51,0,0,0-3.35,1.85,17.6,17.6,0,0,0-7.56,9.6,12.74,12.74,0,0,0-.19,7A11.92,11.92,0,0,0,580,954.16a6,6,0,0,0,3.17-.51c5.87-1.84,10.55-8.15,8-15.34a11.13,11.13,0,0,1-.51-2.63c-.54-6.28,5.68-9.73,9.76-8.83a11.17,11.17,0,0,1,7.63,5.32,16.37,16.37,0,0,1,1.12,14.77,11.29,11.29,0,0,1-4.22,5.57,19.25,19.25,0,0,1-5.56,2.56c-4.25,1.21-8.62,1.86-13,2.73a20.11,20.11,0,0,0-5.32,1.46c-.28.09-.58.15-.88.23,0,0-.1-.06-.11,0a.9.9,0,0,0-.18.16c-1.2.44-2.43.8-3.59,1.34a21.64,21.64,0,0,0-8.88,7.11,25.85,25.85,0,0,0-4.87,17.36,17.24,17.24,0,0,0,1.64,6.28,22.56,22.56,0,0,0,7,8.46,28.32,28.32,0,0,0,10.19,4.76,2.72,2.72,0,0,0,2.09.21c.17.46.57.38.93.38a3.2,3.2,0,0,0,1.48.33,34.12,34.12,0,0,0,10.32-.63A23.42,23.42,0,0,0,610.3,996c.29-.42.51-.91,1.12-1a5.16,5.16,0,0,1,.32.67,12.29,12.29,0,0,0,8.49,8.18,23.38,23.38,0,0,0,9.7.68,15,15,0,0,0,4.1-1,9.92,9.92,0,0,0,1.73-.85,1.36,1.36,0,0,0,.59-1.82,5.38,5.38,0,0,0-1.33-2.08,8.92,8.92,0,0,1-2.33-5.75c-.05-.83-.06-1.67-.06-2.5,0-11.08,0-22.16,0-33.25A37.9,37.9,0,0,0,630,943.19a29.47,29.47,0,0,0-12-14.28,39.1,39.1,0,0,0-18.14-5.72,42.26,42.26,0,0,0-18.68,2.66,2.34,2.34,0,0,0-1.14.65m30.81,29.6q0,10.2,0,20.39a27.62,27.62,0,0,1-2.67,11.89,19.72,19.72,0,0,1-6.79,8.18,11.39,11.39,0,0,1-5.32,2,10.39,10.39,0,0,1-9.73-4.29,15.73,15.73,0,0,1-3.06-12.5,18.11,18.11,0,0,1,5-9.93,50.18,50.18,0,0,1,8.37-6.73c2.53-1.73,5.09-3.43,7.57-5.26a20.91,20.91,0,0,0,6.11-6.55c0-.08.18-.13.48-.33Z"/><path class="cls-1" d="M133.29,941a16.49,16.49,0,0,1,.94,10.88c-1.07,4.48-3.54,7.72-7.91,9.45a35.68,35.68,0,0,1-6.25,1.87c-2.89.56-5.8,1.06-8.69,1.63-1.06.22-2.09.55-3.15.83l-.65.24a5.1,5.1,0,0,0-2.42.6,25.86,25.86,0,0,0-7.35,3.19,20.92,20.92,0,0,0-7,7,27.24,27.24,0,0,0-3.89,11.71,19.74,19.74,0,0,0,5.26,15.87A26.4,26.4,0,0,0,106,1012.1a2.46,2.46,0,0,0,.51.26,33.42,33.42,0,0,0,12.41.39,25.18,25.18,0,0,0,9.92-3.93,22.14,22.14,0,0,0,5.87-5.75c.23-.33.33-.85.9-.88a3.51,3.51,0,0,1,.75,1.52,12,12,0,0,0,6.75,6.72,21.7,21.7,0,0,0,12.47,1,14.9,14.9,0,0,0,4.18-1.39,1.54,1.54,0,0,0,.91-1.9,3,3,0,0,0-.64-1.38c-.3-.41-.67-.78-1-1.18a8,8,0,0,1-1.87-4.14,45,45,0,0,1-.35-4.79c0-11,0-21.92,0-32.88a34.85,34.85,0,0,0-3.2-15.09,30.08,30.08,0,0,0-13.72-14A38.19,38.19,0,0,0,129,931a45.56,45.56,0,0,0-8.79-.8,47,47,0,0,0-10.82,1.51,11.31,11.31,0,0,0-3.73,1.4l-.53.17c0,.17-.12.22-.28.13a23.61,23.61,0,0,0-7.2,4.29,16.11,16.11,0,0,0-5.2,7.66,12.87,12.87,0,0,0,.07,8.27A11.93,11.93,0,0,0,106.46,961a6.57,6.57,0,0,0,1.12-.16,12.62,12.62,0,0,0,8-7.75,10.75,10.75,0,0,0,.55-4.91c-.17-1.49-.73-2.86-1-4.29a7.68,7.68,0,0,1,2-7.11c2.94-3.22,7.22-3.71,11.22-1.47a11.71,11.71,0,0,1,5,5.66m1.84,19.23c0,8.15.11,16.29,0,24.43a25.21,25.21,0,0,1-4.91,14.72,16.28,16.28,0,0,1-7.25,5.8,10.35,10.35,0,0,1-11.72-2.92,15.56,15.56,0,0,1-3.72-13.05,18.5,18.5,0,0,1,5.89-11,57,57,0,0,1,7.73-6c2.59-1.76,5.26-3.43,7.72-5.38a20.27,20.27,0,0,0,5.77-6.35c.08-.17.19-.31.28-.47Z"/><path class="cls-1" d="M422.76,1011.91a.49.49,0,0,0,.53.14,1.62,1.62,0,0,0,1.06.38c1.4.17,2.8.38,4.2.48a30.43,30.43,0,0,0,16.18-3.21,36.26,36.26,0,0,0,9.54-7,41.54,41.54,0,0,0,10.14-17,47.11,47.11,0,0,0,2.06-19,46.3,46.3,0,0,0-5.06-17.38,39,39,0,0,0-11.06-13.09,32.68,32.68,0,0,0-17-6.5,29,29,0,0,0-13.7,2.16h0l-.58.21-.41.2a4,4,0,0,0-1.83.89l-.56.29h-.14l-.07.12c-.16.1-.32.18-.5.28l-.14,0-.08.12c-.37.24-.75.47-1.12.69l-.7.3h0c-.1,0-.14,0-.15.14l-.41.31c-.18,0-.32,0-.35.23a29.31,29.31,0,0,0-3.47,2.7,40.05,40.05,0,0,0-8.62,11,46.92,46.92,0,0,0-5.28,16.92A53.94,53.94,0,0,0,395,973a45.11,45.11,0,0,0,1.88,12.1,42.06,42.06,0,0,0,7.22,14.3,33.27,33.27,0,0,0,8.2,7.72,14.06,14.06,0,0,0,3.61,2.24h-.05l.8.32a4.62,4.62,0,0,0,1.71.72l.1.12.16,0c.15.09.32.17.48.25l.43.15c0,.11.11.14.2.1l.82.29h-.07a3.93,3.93,0,0,0,2.26.63m9.85-73.1a15.57,15.57,0,0,1,3,2.67,29,29,0,0,1,5.06,8.77,63.61,63.61,0,0,1,4,17.15,83.87,83.87,0,0,1,.36,13.06,50.56,50.56,0,0,1-2.81,15.25,22.74,22.74,0,0,1-3.18,6.1c-.35.45-.74.88-1.14,1.3a6.9,6.9,0,0,1-9.71.49,18,18,0,0,1-3.7-4.13,41.25,41.25,0,0,1-4.2-8.82,71,71,0,0,1-3-13.26,81.23,81.23,0,0,1-.66-11.5,49.23,49.23,0,0,1,.3-6.74c.61-5.48,1.58-10.9,4.26-15.84a16.3,16.3,0,0,1,2.93-3.79,6.79,6.79,0,0,1,8.49-.71"/><path class="cls-1" d="M689.08,937c-.83,5.37,1.88,12,8.88,13.55a10.19,10.19,0,0,1,2.84,1.14,10.92,10.92,0,0,1,4.61,6,28.77,28.77,0,0,1,1.57,8.48,68.93,68.93,0,0,1-1.84,17.53,96.9,96.9,0,0,1-4.28,14.15,63.23,63.23,0,0,1-5.78,11.69,24.9,24.9,0,0,1-3.87,4.75,7.26,7.26,0,0,1-3.81,2.1,5.94,5.94,0,0,1-5.37-2,16.07,16.07,0,0,1-2.8-4.11,57.13,57.13,0,0,1-3.74-11.08c-1-3.79-1.8-7.59-2.51-11.44-1.25-6.73-2.67-13.43-4-20.16-1.09-5.65-2.09-11.33-3.21-17a15.83,15.83,0,0,0-3.52-7.38,4.54,4.54,0,0,0-1.85-1.62l-.4-.33a.38.38,0,0,1-.4-.3,14.91,14.91,0,0,0-5.57-2.45,28.18,28.18,0,0,0-12,.17,2.78,2.78,0,0,0-1.63.68,3.3,3.3,0,0,0,0,.7c.59,3.15,1.18,6.29,1.79,9.42.77,4,1.57,7.9,2.33,11.86.88,4.58,1.7,9.17,2.58,13.76.92,4.77,1.91,9.53,2.78,14.31a96.71,96.71,0,0,0,4,15.19,47.08,47.08,0,0,0,5.4,11,5.17,5.17,0,0,0,1.11,1.64s0-.06,0-.06a.3.3,0,0,0,.18.28.35.35,0,0,0,.21.25l0,.11h.11l.27.34a19.06,19.06,0,0,0,5.27,5.09h-.06l.62.36a.16.16,0,0,0,.17.14,5.37,5.37,0,0,0,.57.5,21.66,21.66,0,0,0,8.24,3,21,21,0,0,0,7.66-.14,19.62,19.62,0,0,0,7.65-3.85c4.73-3.72,8.09-8.56,10.93-13.75a92.36,92.36,0,0,0,6.57-15.34,137.9,137.9,0,0,0,4.79-19,114.05,114.05,0,0,0,1.83-17.57,76,76,0,0,0-.81-14.76,31.81,31.81,0,0,0-3.16-9.82,11,11,0,0,0-7.46-5.85c-.5-.11-1-.22-1.51-.29a11.76,11.76,0,0,0-9,2.4,11.45,11.45,0,0,0-4.39,7.65"/><path class="cls-1" d="M167.69,1016.47a19.11,19.11,0,0,0,.74,5.68,9.27,9.27,0,0,0,4.29,5.45,16.19,16.19,0,0,0,9.81,1.92,18.19,18.19,0,0,0,6.75-1.14,6.41,6.41,0,0,0,.14-2.27q0-23.44,0-46.92a29,29,0,0,1,.82-7.42A21.86,21.86,0,0,1,193.9,964a14.78,14.78,0,0,1,4.93-4.2,9.35,9.35,0,0,1,7.44-.75,11.3,11.3,0,0,1,4.53,2.82,18.14,18.14,0,0,1,3.37,4.87,39.75,39.75,0,0,1,3.43,12.34,58.84,58.84,0,0,1,.43,8.06q0,14.63,0,29.23a21,21,0,0,0,.53,4.76c1,4.24,3.75,6.73,7.86,7.85s8.38.64,12.54-.29a2.69,2.69,0,0,0,.63-.34,5.29,5.29,0,0,0,.17-2.15q0-21.44,0-42.87a56.44,56.44,0,0,0-.66-8.81A35.14,35.14,0,0,0,233,959.14a28.16,28.16,0,0,0-7.61-7.23,27.81,27.81,0,0,0-9.94-4,26.7,26.7,0,0,0-16.35,1.81,18.71,18.71,0,0,0-7.34,5.41.38.38,0,0,0-.24.27,1.05,1.05,0,0,0-.57.6v0c-.52.3-.63,1.12-1.51,1.21v-2.16q0-22.5,0-45a21.89,21.89,0,0,0-.44-4.58,11.28,11.28,0,0,0-6.45-8.5.32.32,0,0,0-.27-.14.37.37,0,0,1-.49-.21.66.66,0,0,0-.36-.11.3.3,0,0,1-.42-.19l-1-.41a.35.35,0,0,0-.45-.1,22.89,22.89,0,0,0-12.89.13,9,9,0,0,0-2.1.94,1.47,1.47,0,0,0-.71,2,5,5,0,0,0,1.25,1.92,9.8,9.8,0,0,1,2.52,6.28c0,.83.08,1.67.08,2.5q0,18.54,0,37.1,0,34.88,0,69.78"/><path class="cls-1" d="M482.25,922.17c0,.13-.05.25-.08.37a2,2,0,0,0-.28,1.32l-.75,2.07-2.33,3.81a4,4,0,0,1-.26.32l-.11,0,0,.11a.39.39,0,0,0-.24.26l-.31.24h0c-.18.19-.36.39-.55.58a12.84,12.84,0,0,1-6.42,2.83,3.72,3.72,0,0,0-1.11.33,2.69,2.69,0,0,0-1.69,2.92,2.72,2.72,0,0,0,2.6,2.39c.58,0,1.16,0,1.74,0a4.55,4.55,0,0,1,2.09.2,7,7,0,0,1,.15,2.28q0,20.38,0,40.75c0,2.76.05,5.52.3,8.26a31.93,31.93,0,0,0,2.31,9.67,1.54,1.54,0,0,0,0,.38,28.92,28.92,0,0,0,11.17,13.81,38.26,38.26,0,0,0,16.75,5.69,6.1,6.1,0,0,0,1.35,0,2.44,2.44,0,0,0,2.26-2.23,2.53,2.53,0,0,0-2-3,11.36,11.36,0,0,1-5.08-2.57,14.75,14.75,0,0,1-4.11-6.6,23.7,23.7,0,0,1-1.16-7.75q0-15.67,0-31.34,0-12.69,0-25.38a6.45,6.45,0,0,1,.1-2,2.44,2.44,0,0,1,1.43-.23c.57,0,1.15,0,1.72,0a2.68,2.68,0,0,0,2.6-2.58,2.56,2.56,0,0,0-2.44-2.72c-.51-.06-1,0-1.54,0a4.25,4.25,0,0,1-1.61-.12,1.93,1.93,0,0,1-.26-1.37c0-1.73,0-3.46,0-5.19a25.85,25.85,0,0,0-.41-5c-.65-3.31-2-6.2-4.87-8.21a12.91,12.91,0,0,0-7.38-2.37c-.26,0-.48.13-.78.49a45.94,45.94,0,0,1-.82,9.56"/><path class="cls-1" d="M541.41,1015.39a28.66,28.66,0,0,0,9.7-4.94c5.43-4.32,7.64-10,6.88-16.78a16.74,16.74,0,0,0-1.17-4.64,20.13,20.13,0,0,0-6.41-8,71.66,71.66,0,0,0-9.42-5.92,88.13,88.13,0,0,1-9.84-6,28.82,28.82,0,0,1-7.51-8.13,15,15,0,0,1-2.34-7c-.13-3,.8-5.59,3.51-7.21a9.86,9.86,0,0,1,6.67-1.25,4.48,4.48,0,0,1,4,4.45,9.24,9.24,0,0,1-.09,2.1,11.78,11.78,0,0,1-.62,2.42,11.31,11.31,0,0,0-.72,3,8.93,8.93,0,0,0,1.94,7.2A11.53,11.53,0,0,0,545.8,969,10.89,10.89,0,0,0,556,959.64a13.32,13.32,0,0,0-3.23-10.71,19.17,19.17,0,0,0-6-4.75,30.53,30.53,0,0,0-11-3.19c-5.68-.58-11.27-.23-16.6,2.09a7.32,7.32,0,0,0-2.16,1.18,22.58,22.58,0,0,0-8.6,7.48A18.65,18.65,0,0,0,505,961a19.4,19.4,0,0,0,4.64,14.21,34.28,34.28,0,0,0,8.41,7.2h0c.13.07.25.16.38.24s.09.18.22.14l.55.37.63.48h0c3,1.94,6,3.87,9,5.84a58,58,0,0,1,7.38,5.48,14.88,14.88,0,0,1,2.63,3,6.42,6.42,0,0,1-.33,7.69,10,10,0,0,1-2.06,2,14.24,14.24,0,0,1-11.08,2.58,9,9,0,0,1-7-5.4,12.51,12.51,0,0,1-1.14-4.61,6.66,6.66,0,0,0-.75-3.5l0-.08a.39.39,0,0,1-.26-.47,3.58,3.58,0,0,0-1.43-1.74,5.11,5.11,0,0,0-7.76,2,6.42,6.42,0,0,0-.52,2.23,11.69,11.69,0,0,0,1.5,6.07,18,18,0,0,0,7.6,8.11,7.75,7.75,0,0,0,2.79,1.55l-.06,0a30.08,30.08,0,0,0,11.92,2.61,34.77,34.77,0,0,0,11.19-1.56"/><path class="cls-1" d="M308.22,944.48a2.74,2.74,0,0,0,2.41-2.77,2.66,2.66,0,0,0-2.42-2.55c-.7-.1-1.41,0-2.12-.07-.43,0-.9.09-1.25-.34a5.63,5.63,0,0,1-.13-1.88c0-1.93,0-3.84,0-5.77a18.54,18.54,0,0,0-.91-5.86,11.5,11.5,0,0,0-4.77-6.3,11.3,11.3,0,0,0-7.45-2,10.27,10.27,0,0,0-.22,2.73,4.91,4.91,0,0,0-.1,2c0,.25,0,.5,0,.75-.12,1.23-.32,2.47-.49,3.7l-.1.16v.18c-.08.4-.15.79-.22,1.18-.69,1.65-1.38,3.31-2.06,5l-.27.47a4.83,4.83,0,0,0-1.18,1.62l-.44.38a11.84,11.84,0,0,1-6.65,3.57,12.88,12.88,0,0,0-1.49.35,2.77,2.77,0,0,0,.44,5.38c.88.12,1.79,0,2.69.08.48,0,1-.15,1.52.42,0,.65,0,1.41,0,2.17q0,22.3,0,44.59a38.31,38.31,0,0,0,1.4,10.44,22.17,22.17,0,0,0,2.4,6.23,4.9,4.9,0,0,0,.13.55,28.23,28.23,0,0,0,7.74,9.42c6.29,4.95,13.64,6.86,21.45,7.45a.91.91,0,0,0,.87-.24,12.53,12.53,0,0,0-.11-4.9l-2.07-.43a10.31,10.31,0,0,1-5.68-3.35,15.65,15.65,0,0,1-3.12-5.48,28.17,28.17,0,0,1-1.31-8.89V947c0-.38,0-.77,0-1.16s-.06-.77.3-1.1a4,4,0,0,1,1.66-.15c.52,0,1,0,1.54-.06"/><path class="cls-1" d="M273.28,1023.15a3.93,3.93,0,0,0-1.19-1.94,8.79,8.79,0,0,1-2.45-4.91,15.89,15.89,0,0,1-.15-2.68q0-24.12,0-48.26c0-1-.06-2.05,0-3.08a13,13,0,0,0-.79-4.33,10.87,10.87,0,0,0-5.09-6.26,17.31,17.31,0,0,0-10.95-2,14.6,14.6,0,0,0-5.08.88,7.2,7.2,0,0,0-1.84,1,1.21,1.21,0,0,0-.44,1.37,4.64,4.64,0,0,0,1.17,2,9.3,9.3,0,0,1,2.39,5.13A23.2,23.2,0,0,1,249,963q0,24.19,0,48.4a32.78,32.78,0,0,0,.14,3.84,10.66,10.66,0,0,0,2.7,6.61,7.25,7.25,0,0,0,.53.79,12.09,12.09,0,0,0,5.54,3.31,22.2,22.2,0,0,0,12.69-.11,9.06,9.06,0,0,0,1.93-.87,1.41,1.41,0,0,0,.76-1.77"/><path class="cls-1" d="M269.25,931.84a9.89,9.89,0,0,0-7.69-7.94,8.87,8.87,0,0,0-8.57,2c-5.07,3.29-5.55,12.2,0,16V942l.1.05,0,0c3.15,2.34,6.55,2.51,10.15,1.17a10.09,10.09,0,0,0,6-11.42"/><path class="cls-2" d="M714.74,847.67c-.69,5.54-4,13.53-8.09,16.79A24.46,24.46,0,0,1,686.79,869c-5.67-1.21-10.14-4.32-12.56-8.84-6.14-11.46-4-25.27-4-37.73A293.7,293.7,0,0,0,667.66,783c-3.18-23.53-9.52-46.77-20.09-68.08a167.3,167.3,0,0,0-24.22-36.34c-28.6-32.46-71.16-50.18-116-50.18a175.84,175.84,0,0,0-49.53,7.2c-55.07,16.33-78.42,35.82-104,86.94,0,0-.32.88-.88,2.37-1.68,4.6-6.14,16.83-10.14,27.58A22.41,22.41,0,0,1,321.86,767a22.22,22.22,0,0,1-21.25-29.16c7.21-21.86,23.26-62.65,49.72-90.37,28.7-30,67.26-51.21,108.6-59.86,43.07-9.08,88.7-4.74,128.47,12.23,39,16.7,72.42,45.25,94.13,80.32,26.66,42.89,32,94.1,33.68,143a149.31,149.31,0,0,1-.47,24.51"/><path class="cls-3" d="M594.12,468.68c-49.4,10.6-84-54.85-46.9-91.44,23.93-23.61,62.35-16.56,79.64,9.61,19.89,30.09,3.17,74.12-32.74,81.83"/><path class="cls-3" d="M160.74,526.07c.45,24.62-32.78,35.59-46.31,14.63-8.71-13.52-.47-29.09,13.13-35.14,15.64-6.95,32.86,2.61,33.18,20.51"/><path class="cls-4" d="M529.79,183.45c21.77,20.72,33.64,46.24,45.3,73.38,4.92,11.45,12.28,30.83,9.79,43.74-1.28,6.6-11,8.91-16.47,7-19.07-6.72-20.75-35.18-24.81-51.57-5.74-23.17-22.09-42.55-42.21-54.85a99,99,0,0,0-32.8-13.05c-10.75-2-35.84,2.56-37.74-14-2.22-19.38,31.59-19.78,43.42-17.21,19.74,4.28,41.79,13.55,55.52,26.61"/><path class="cls-5" d="M.36,163.61c0,2.84.76,6.4,3.83,7.18,3.38.86,6.1-2.45,7.3-5.37,3.34-8.17,3.75-17.08,6.47-25.43,5.33-16.34,10.15-34,20.5-48S64.58,69.89,80,62.74c16-7.4,30.41-14.34,42.54-27.4C129,28.36,134.45,19.87,133,10c-3.63-24.59-35,3.39-43.28,8.11a5.74,5.74,0,0,1-3.49,1.06c-5-.66-.12-12.58-2.23-15.66-4.48-6.56-15.49-.82-20.28,2.34-4.11,2.72-7.45,6.61-12,8.73-7.46,3.5-8.4-1.08-11.14-6.9-2.37-5-9.12-7.7-15.16-7s-11.29,4.18-15,8.43C.9,19.84,0,34.8,1.89,48.46,3.82,62.4,9.72,77.54,8.57,91.62,7.22,108,.14,146.7.36,163.61"/><path class="cls-3" d="M715.2,352.45c0,3.68.45,16.29-7.49,17-6.1.59-21.19,1.45-28.86,1.18-12.14-.44-15.72,1.6-16.19-9.44-.68-16.14.58-39.14.5-55-.12-21.81-.65-43.6-1.28-65.39-1.21-42.66-11.06-90-42.35-121.79-16.71-17-39-28.27-62.43-32.55-31.39-5.77-62,5.19-92.2,12.1-21.71,5-45.24,4.6-62-11.93C396.64,80.47,392,72.89,388,65.06c-3.82-7.55-6.5-16.3-11.82-23-5.53-6.92-13.27-10.72-21.91-12.19C313,22.94,284,58.08,248.06,70.22c-16.61,5.59-35.65,6.21-51.28-1.66S170,43.31,172.89,26.31s22-30.46,38.7-25.13c13.82,4.38,20.78,18.15,33.15,24.6,12.91,6.75,29.13,5.95,42.84,2.19a117.5,117.5,0,0,0,19.21-7.37c17.47-8.23,34-18.77,53.85-20.1a46.54,46.54,0,0,1,29.95,8c11.75,8.3,16.08,22.14,20.76,35,8.08,22.24,26.91,33.4,50.74,28.54C517.56,60.69,567.31,44.16,619,78.21c53.95,35.55,87.33,98.43,93.6,161.81,4.2,42.48,2.63,69.12,2.63,112.43"/><path class="cls-6" d="M383.82,56.81c-1.16-2.55-2.25-5.18-3.35-7.91,1.22,2.58,2.64,6.22,3.35,7.91"/><path class="cls-2" d="M350.13,80.69c-.16-.41-.33-.82-.52-1.22-5.45-11.7-20.41-15.51-31.9-11.1-8.27,3.17-12.92,12.5-13.41,20.93a19.48,19.48,0,0,0,8.52,17.13,21.91,21.91,0,0,0,12.51,3.66c3.38,0,7-.9,10.45-.61,9.28.79,12.76,14.93,22.78,12.85a5.45,5.45,0,0,0,3.75-2.6,6.21,6.21,0,0,0,.64-3.09c-.12-5.07-3.63-9.87-6.56-13.76-2-2.68-4.64-4.78-5.1-8.3-.36-2.69.4-5.38.19-8.08a20.06,20.06,0,0,0-1.35-5.81"/><path class="cls-3" d="M119.66,802.62c-18.29,0-36.58-.77-54.87-.4-15.64.32-39.59-2.79-52.18,7.66-13.56,11.26-15.3,40.65-.86,51.78,7.57,5.84,18.43,5.63,27.3,6.75,12.09,1.52,27.2,1.07,39.38,1,24.28-.16,45.3,0,69.34-.16,32.11-.2,75.9-.61,108-.73,9.8,0,23.14,1.13,30.66-7.47,4.33-4.94,6.56-11.46,7.3-18,.95-8.31-.54-17.21-5.66-23.81-4.39-5.65-11.06-9.16-17.95-11-27.77-7.4-70.8-4.48-99.28-5.09q-25.6-.55-51.19-.52"/><path class="cls-1" d="M357.8,789.49c22.43-13.32,49.36-12.61,73.79-5.88,19.35,5.33,38.2,9.78,58.51,3.51a67.46,67.46,0,0,0,11.6-4.75c.87-.46,4.56-2.8,7.21-4.62,1.28-.87,3.39-.55,3.8.61a27.48,27.48,0,0,1-2.46,23.45c-5,8.37-14.71,15.53-26.59,19-28.48,8.18-64.43-5.7-88.51,14.35-10,8.37-14.29,21.44-25.29,29.37-14.83,10.69-35.73,3.09-42.65-10.71-10.5-20.95,9.76-51.9,30.59-64.28"/><path class="cls-5" d="M392.14,754.18a12.66,12.66,0,0,0,.3,3.69,5.09,5.09,0,0,0,4.64,4.09c3.16.21,7.27-1.75,8-5.09.57-2.71-.46-5.48.13-8.2a5.46,5.46,0,0,1,.82-2c5.94-8.51,16.17-9.24,25.6-11.06,13.26-2.56,15.91-10.26,25.76-17.85,24-18.52,33,19.82,50.9,26.74,15.56,6,23.31-20.44,38.7-12.78,7.84,3.91,17.78,18.14,17.86,27.33.35,39.32-18.48,50.83-18.48,78.95,0,31.05,34.93,40,55.62,23,26.45-21.73,23.62-80.23,12.5-111.22s-33-60.72-64.26-73.25c-44.71-17.93-98.05-4.47-131.35,30.7a115.13,115.13,0,0,0-9.67,11.67,131.19,131.19,0,0,0-9.41,15.31A81,81,0,0,0,392.89,750a20.22,20.22,0,0,0-.75,4.19"/><path class="cls-4" d="M109.93,645.21a44.71,44.71,0,0,1-5.36-6.75c-4.8-7.32-15-33.55-1.6-37.56a8.19,8.19,0,0,1,6.82,1.42c5.52,3.69,9,11,16.29,10.33,11.75-1.13,8.17-22.88,12.22-31.44,3.2-6.74,11.69-10.89,17.94-8.08,7.54,3.38,4.89,15.07,4.12,22.14a8.35,8.35,0,0,0,0,3c.25.95,1,1.79,1.8,1.79a2.51,2.51,0,0,0,1.67-.94c2.82-2.85,2.86-7.46,4.43-11.15,2.49-5.88,8.8-6.37,13.52-4.58,13.14,4.94,8.52,22.28,3.59,32.71-14,29.51-51.72,53.68-75.47,29.16"/><path class="cls-1" d="M232.54,570.78a45.34,45.34,0,0,1-5.36-6.75c-4.8-7.32-15-33.55-1.59-37.56a8.18,8.18,0,0,1,6.81,1.42c5.53,3.69,9,11,16.29,10.33,11.76-1.13,8.17-22.88,12.23-31.43,3.2-6.76,11.69-10.9,17.94-8.09,7.54,3.38,4.88,15.07,4.11,22.14a8.35,8.35,0,0,0,0,2.95c.25,1,1,1.8,1.81,1.79a2.54,2.54,0,0,0,1.67-.94c2.81-2.85,2.85-7.46,4.42-11.15,2.49-5.88,8.8-6.36,13.53-4.58,13.13,4.94,8.52,22.28,3.58,32.71-13.95,29.51-51.71,53.68-75.47,29.16"/><path class="cls-4" d="M258.43,745.45c14.57,4.56,11-12.11,16.26-29.06s17.49-27.78,2.92-32.34-30.67,5.5-36,22.46,2.22,34.39,16.79,38.94"/><path class="cls-1" d="M195.57,762.94v.11c-.11,3.54-4.94,5-7.5,2.38-6.4-6.56-16.31-10.86-27.52-11.08a40.94,40.94,0,0,0-17.64,3.6,40.1,40.1,0,0,0-7.56,4.49,28.07,28.07,0,0,0-2.18,1.86,6.38,6.38,0,0,1-8.26.2c-.45-.36-.9-.72-1.33-1.08a37.7,37.7,0,0,0-7.47-4.85,42.06,42.06,0,0,0-17.68-4.22,41,41,0,0,0-23.82,7,38.57,38.57,0,0,0-4.87,3.93c-1.06,1-1.56,2.9-3.41,2.49-2-.46-3.49-3.36-4.93-4.56a35.17,35.17,0,0,0-7-4.56,42.79,42.79,0,0,0-18.06-4.31c-12.3-.24-23.25,4.5-29.85,11.89-1.62,1.82-4.83,1.51-5.77-.68a9.42,9.42,0,0,1-.68-4c.35-15.61,16.61-28,36.3-27.6,11.13.23,21,4.48,27.4,11a4,4,0,0,0,5.76,0c6.65-6.84,17.19-11.18,29-10.95a42.93,42.93,0,0,1,17.69,4.13,35.39,35.39,0,0,1,9.3,6.93,4.74,4.74,0,0,0,6.6-.12,28.18,28.18,0,0,1,2.94-2.71,37.93,37.93,0,0,1,7.74-4.69A41.68,41.68,0,0,1,160.55,734c19.69.39,35.37,13.35,35,29"/><path class="cls-2" d="M195.57,716.46v.12c-.11,3.53-4.94,5-7.5,2.37-6.4-6.55-16.31-10.86-27.52-11.08a40.8,40.8,0,0,0-17.64,3.6,40.14,40.14,0,0,0-7.56,4.5,25.94,25.94,0,0,0-2.18,1.85,6.36,6.36,0,0,1-8.26.21c-.45-.36-.9-.72-1.33-1.09a37.7,37.7,0,0,0-7.47-4.85,41.91,41.91,0,0,0-17.68-4.22,41,41,0,0,0-23.82,7,39.47,39.47,0,0,0-4.87,3.93c-1.06,1-1.56,2.9-3.41,2.49-2-.46-3.49-3.36-4.93-4.56a35.62,35.62,0,0,0-7-4.56,42.79,42.79,0,0,0-18.06-4.31c-12.3-.23-23.25,4.5-29.85,11.9-1.62,1.81-4.83,1.51-5.77-.69a9.39,9.39,0,0,1-.68-4c.35-15.61,16.61-28,36.3-27.6,11.13.24,21,4.49,27.4,11a4,4,0,0,0,5.76,0c6.65-6.85,17.19-11.18,29-11a42.93,42.93,0,0,1,17.69,4.13,35.42,35.42,0,0,1,9.3,6.94,4.75,4.75,0,0,0,6.6-.13A28.18,28.18,0,0,1,135,695.7,37.89,37.89,0,0,1,142.7,691a41.69,41.69,0,0,1,17.85-3.55c19.69.39,35.37,13.36,35,29"/><path class="cls-4" d="M336.93,600.52c8.41,12.74,16.15-2.45,31-12.23s31.12-10.46,22.72-23.2-27.24-15.13-42.07-5.35-20,28-11.63,40.78"/><path class="cls-4" d="M495.37,540.22c-1.42,15.19,14.13,8.19,31.82,9.85S558,561.4,559.43,546.2,547.65,517.35,530,515.7s-33.18,9.32-34.6,24.52"/><path class="cls-5" d="M100.42,354.13a41.59,41.59,0,0,0,6.64,12.06c6.75,8.52,17,12.7,27.23,8,6.77-3.07,12.08-8.57,17.62-13.53,7-6.25,14.61-11.87,23.23-15.42,10.84-4.45,23.58-5.24,34.33,0,9.56,4.62,15.69,15.12,26.16,17.93,13.52,3.62,26.82-6.53,40.58-5.23,8.16.77,15.6,4,23.28,6.59,21.74,7.41,44.72,10.33,67.59,9.71,7.14-.2,14.45-1.32,20.64-4.9,10.75-6.24,16.3-21.75,5.8-31.1-7.06-6.29-17.09-4.5-25.69-3.57-18.72,2-41.53,7.11-59.65.11-20.75-8-25.09-31.31-35-48.88-7.69-13.59-25.77-17-34.75-2.79-4.51,7.15-7,15.38-9.47,23.41-1.68,5.39-2.89,12.29-7.59,15.95-6.34,4.94-15.83,3.39-23,1.43-19.78-5.41-36.24-19-56.05-24.24-33.31-8.72-51.6,27-41.89,54.48"/><path class="cls-1" d="M676.81,472c-5.59-.4-10.94,4.06-11.11,9.27-.84,24.48-2.87,73.85-2.43,80.79.54,8.71,4.55,54.51,28.13,49.24,23.42-5.23,25.21-30.27,23.68-50.1-2.3-29.85-1.18-47.65.19-77.49.11-2.3.15-4.79-1.2-6.65-1.74-2.38-5.07-2.79-8-3L676.81,472M691,588.42c-18.26,7.06-11.77-45.1-5.55-66.57.91-3.12,5.6-3.74,6.49-.86,5.55,18,16.63,60.62-.94,67.43"/><path class="cls-5" d="M682.49,404.06a5.46,5.46,0,0,1,1.52-2.85c3.1-3.09,8.93-2.66,12.71-1.36,4.81,1.64,6.68,5.45,6,10.51-.27,2.17-.17,4.63,1.85,5.87s4.9.29,7,1.76c2.28,1.6,2.93,5,3.24,8a98.87,98.87,0,0,1,.59,14.39c-.13,2.86-1,5.92-3.37,7.53a10.86,10.86,0,0,1-5.35,1.49c-7.3.6-14.45-.56-21.71-.62-4.81,0-11.3.94-14.68-3.47-1.74-2.28-1.79-5.25-2-8a81.86,81.86,0,0,1-.57-11.18,9.67,9.67,0,0,1,.51-3c.94-2.43,3.84-3.34,6.06-4,2.44-.78,5.06-1.94,6.67-4,2.49-3.24.74-7.33,1.54-11"/><path class="cls-1" d="M689.45,83.23a14.58,14.58,0,0,0,1.61-6.56,58.32,58.32,0,0,0-7.36-29,38.32,38.32,0,0,1-5.19-16.16c-.63-10,2.22-16.85,9.87-22.32A63.22,63.22,0,0,1,709.26,0a1.23,1.23,0,0,1,1.13,2.08c-3,2.76-5.26,6.59-7,10.38a29,29,0,0,0-3,9.38c-.39,4,.6,8.07,1.91,11.92,2.85,8.35,7.21,16.12,10.17,24.44s4.41,17.63,1.31,25.78a24.15,24.15,0,0,1-18.53,15.07,24.84,24.84,0,0,1-22.49-8.72c-2.42-2.94,7.83-3.1,8-3.1,3.83.1,6.44.24,8.68-4"/><path class="cls-2" d="M643,41.66A11.29,11.29,0,0,1,636.72,44c-10.31,1.1-20-4.6-29.41-9.28A170.68,170.68,0,0,0,522.1,17c-8.51.47-17.26,1.68-24.68,6.2-9.08,5.53-15.65,15.72-25.65,19a26.08,26.08,0,0,1-28.22-9.49C440,27.37,439,19.87,441.92,14.09c4.26-8.43,14.47-10.56,23.37-11.45C493.09-.17,521.06.07,549,.31c26.4.22,53.35-1.21,79.68.69C636.08,1.53,642,3.16,645,11.05c2.75,7.24,4.38,25.1-2,30.61"/><path class="cls-1" d="M113.69,418.09c6.19,4.32,12.25,8.83,18,13.74a33,33,0,0,0,2.71,2.17c.94.66,2,1.38,2.27,2.58.44,2.2-1.69,3.23-3.26,4.13-6,3.48-12,7.05-17.75,10.91S104,459.53,97.75,462.75c-6.46,3.32-8.51-6.18-7.27-10.82a7.23,7.23,0,0,1,2.71-4.06,8.36,8.36,0,0,1,2.52-1.2c.63-.21,2-.3,2.4-.84s-.18-1.19-.46-1.69c-1.41-2.5-3.9-4.29-4.83-7.07a7.51,7.51,0,0,1,1.13-6.9c1.52-2,4.45-2.72,6.59-3.75a2.12,2.12,0,0,0,.78-.53c1.58-1.93-5-4.76-5.93-5.84-2.25-2.56-3.19-6.15-3.86-9.42-.29-1.43-1.17-4.88,1-5.33a4.22,4.22,0,0,1,2.62.64c6.51,3.3,12.51,7.92,18.55,12.15"/><path class="cls-5" d="M69.43,452.87a12.82,12.82,0,0,1,6-7.88c.51-.29,1.13-.66,1.1-1.25s-.41-.79-.77-1.08a18.69,18.69,0,0,1-6-8.5,9.63,9.63,0,0,1-.38-5.92,5.51,5.51,0,0,1,2.13-2.9,2.26,2.26,0,0,0,.76-2.88,11.68,11.68,0,0,1-1-5.22,30.24,30.24,0,0,1,1.5-7.8,11.4,11.4,0,0,1,1.38-3.36,1.16,1.16,0,0,0-.72-1.82c-7.06-1.25-42-1.29-49-.36-11.68,1.55-20.06,7.72-22.88,19.38S.32,449.84,8.18,459.17c6.21,7.38,32.92,5.63,41.62,5.19,2-.1,15.89.22,17.72-.61,3.65-1.66,1.1-7.73,1.91-10.88"/><path class="cls-1" d="M108.09,101.41c8.94-.91,25-.7,36,10.24,0,0,2.26-20.91,19.34-29.26a11.92,11.92,0,0,1,16.58,7l12.87,39.48a13.1,13.1,0,0,1-7.94,16.36c-8.81,3.25-20,8.63-25,16.73a8.06,8.06,0,0,1-10.64,2.7c-9.35-5-24.51-11.85-32.93-9.27a7.71,7.71,0,0,1-9.25-3.81c-4.65-9.29-9.06-21-11-38.55-.73-6.88,7.73-11.15,11.9-11.58"/><path class="cls-2" d="M65.29,568.09c-4.61-7.66-8.66-16.58-7.43-25.75,0,0,4.87.94,9.45-9.92,4.67-11-11.05-20.31-18.68-24.7C40.47,503-1.59,488.56,3.07,511.07c3.7,17.89,8.8,31.58,15.71,31.75-.61,0-4.36,11.11-4.72,12A95.82,95.82,0,0,1,8.41,567.1c-2.23,3.7-4.82,7.17-6.79,11a11.5,11.5,0,0,0,1,12.37c5.73,8,23.92,44.34,29.76,60.26.76,2.09,2.62,4.58,4.83,4.58a4.51,4.51,0,0,0,4.19-2.82q2.19-5.32,4.43-10.61,5.82-13.95,12.15-27.69c3-6.55,6-13.16,9.94-19.24,2.77-4.26,6.07-7.86,4.82-13.3-1.12-5.06-4.8-9.22-7.41-13.56m-18,27.18A9.34,9.34,0,1,1,38,585.94a9.34,9.34,0,0,1,9.32,9.33"/><path class="cls-1" d="M239.56,469.41c-4.77-.07-9.54-.12-14.28-.41a11.22,11.22,0,0,1-5-1.17,6.32,6.32,0,0,1-3.07-4.82c-.2-2.53,1.32-4.57,3-6.24,4.81-4.71,9.08-10,14.29-14.26,1.82-1.5,4.33-2.53,6.56-1.68,4.83,1.84,8.68,5.77,12.07,9.54,2.82,3.12,8,7.51,8,12,.08,6.76-8.67,7.31-13.47,7.16-2.72-.08-5.44-.11-8.17-.15"/><path class="cls-3" d="M181.3,469.46c-4.77-.06-9.54-.11-14.27-.4a11.16,11.16,0,0,1-5-1.18,6.25,6.25,0,0,1-3.07-4.82c-.21-2.53,1.32-4.57,3-6.23,4.81-4.72,9.07-10,14.28-14.27,1.82-1.5,4.33-2.53,6.56-1.68,4.84,1.85,8.68,5.77,12.08,9.54,2.8,3.12,8,7.52,8,12.05.09,6.75-8.67,7.3-13.47,7.15-2.71-.09-5.44-.12-8.17-.16"/><path class="cls-2" d="M295.41,469.36c-4.77-.06-9.54-.12-14.28-.41a11.28,11.28,0,0,1-5-1.17,6.33,6.33,0,0,1-3.08-4.83c-.2-2.53,1.32-4.57,3-6.23,4.81-4.71,9.08-10,14.29-14.27,1.82-1.49,4.33-2.52,6.56-1.67,4.83,1.84,8.68,5.76,12.08,9.54,2.81,3.12,8,7.51,8,12,.08,6.75-8.67,7.3-13.47,7.15-2.72-.08-5.44-.12-8.17-.15"/><path class="cls-1" d="M239.07,428.31c-4.76-.06-9.54-.11-14.28-.4a11.28,11.28,0,0,1-5-1.17,6.33,6.33,0,0,1-3.08-4.83c-.2-2.53,1.32-4.57,3-6.23,4.81-4.71,9.08-10,14.29-14.27,1.82-1.5,4.33-2.52,6.56-1.67,4.83,1.84,8.68,5.76,12.08,9.53,2.81,3.13,8,7.52,8,12,.08,6.76-8.67,7.31-13.47,7.16-2.72-.09-5.44-.12-8.17-.16"/><path class="cls-3" d="M180.81,428.37c-4.76-.06-9.54-.12-14.28-.41a11.28,11.28,0,0,1-5-1.17,6.27,6.27,0,0,1-3.07-4.83c-.21-2.52,1.31-4.56,3-6.23,4.81-4.71,9.08-10,14.29-14.27,1.82-1.5,4.33-2.52,6.56-1.67,4.83,1.84,8.68,5.77,12.08,9.54,2.81,3.12,8,7.51,8,12,.08,6.75-8.67,7.3-13.47,7.15-2.72-.08-5.44-.12-8.17-.15"/><path class="cls-2" d="M294.92,428.26c-4.76-.06-9.54-.11-14.28-.41a11.27,11.27,0,0,1-5-1.16,6.31,6.31,0,0,1-3.07-4.83c-.21-2.53,1.31-4.57,3-6.24,4.8-4.7,9.07-10,14.28-14.27,1.82-1.49,4.33-2.51,6.56-1.67,4.83,1.84,8.68,5.77,12.08,9.54,2.81,3.13,8,7.52,8,12,.08,6.76-8.67,7.3-13.47,7.16-2.72-.09-5.44-.12-8.17-.16"/><path class="cls-3" d="M612.54,569.36c-2.74-1.32-5.48-2.63-8.14-4.08a7.12,7.12,0,0,1-2.56-2,4,4,0,0,1-.44-3.61,5.16,5.16,0,0,1,3.46-2.77c4.08-1.41,8-3.3,12.19-4.36a4.4,4.4,0,0,1,4.26.8c2.28,2.36,3.43,5.66,4.35,8.74.77,2.56,2.53,6.47,1.33,9.09-1.82,3.91-7,1.87-9.77.49-1.55-.78-3.11-1.53-4.68-2.29"/><path class="cls-3" d="M304.91,644.83c-1.8,2.45-3.61,4.9-5.52,7.24a7.2,7.2,0,0,1-2.46,2.14,4,4,0,0,1-3.62-.24,5.17,5.17,0,0,1-2.08-3.92c-.63-4.27-1.75-8.47-2-12.79a4.41,4.41,0,0,1,1.58-4c2.75-1.81,6.2-2.32,9.4-2.65,2.65-.27,6.83-1.28,9.18.4,3.49,2.51.52,7.25-1.35,9.68-1,1.38-2.08,2.77-3.12,4.17"/><path class="cls-3" d="M445.4,551.6c-3,.52-6,1-9,1.41a7.22,7.22,0,0,1-3.24-.15,4,4,0,0,1-2.46-2.68,5.17,5.17,0,0,1,1.21-4.27c2.49-3.52,4.59-7.33,7.38-10.63a4.42,4.42,0,0,1,3.93-1.82c3.24.59,6.08,2.6,8.63,4.58,2.11,1.63,5.82,3.79,6.35,6.63.79,4.24-4.64,5.6-7.66,6.07-1.71.27-3.42.56-5.14.86"/><path class="cls-4" d="M504,861.12c-11.08,7.93-25.72,9.2-38.9,8-10.89-1-28.17-3-32.13-15.35-1.61-5,1.58-7.79,5.9-4.49,7.92,6.06,18.6,5.34,27.26,1.32,8-3.69,14.43-9.71,22.1-13.86,6.71-3.64,17.7-5.86,22.61,1.82s-.32,17.86-6.84,22.53"/><path class="cls-5" d="M560.54,164.06c23.42,21.18,29.65,50.93,40.74,79a9.83,9.83,0,0,0,2.59,4.18c13.35,10.77,16.31-36,16-41.39-2.27-34-24.49-64.61-56.64-76.36-7-2.58-43.57-15.24-42.13.47,1.05,11.41,17.35,18.93,25.85,24a87.08,87.08,0,0,1,13.63,10.06"/><path class="cls-1" d="M468.23,453.52C445,480.4,415.16,496.4,386.35,497.37c-12,.54-20.84-11.39-19-24.1,1.71-12,10.45-16.87,20.34-18.53a73.42,73.42,0,0,0,29.41-11.17c18.21-11.92,35.27-30.65,43.44-52.12,13.61-35.71.25-91-37-102.69-14.37-4.49-26.89-.22-40.69,3.78-17.76,5.13-34.59,10-51.51-3.31-13.39-10.51-15.7-28.85-17.91-46.58-2.92-23.37-6-47.5-33.94-53.09-32.1-6.4-47,23.53-55.43,46.64-9.63,26.47-29.59,48.29-57.82,37.55-15.25-5.82-26.6-18.76-41.35-25.65a54.69,54.69,0,0,0-46-.68c-17.75,7.63-31,24.68-36.4,44.26-2.76,10-3.72,21.21-1.78,31.55,2.26,12.11,9.34,23.61,7.39,36.42-1.25,8.22-7.26,15.38-14.73,17.54C7.81,384.56,1.77,341.08.6,322.43A126.31,126.31,0,0,1,19.84,247c21.78-34,56.42-51.06,95-46.74,14.2,1.59,27,8.57,39.39,15.69,10.25,5.89,24.08,12.91,35,4.63S202.3,196.36,208,184.29c15.51-33.09,51.86-44,83.68-35.83,15.26,3.92,29.95,12.1,40.71,24.57,7.94,9.21,12.68,21.05,15.58,33.09,3.44,14.29.36,34.39,13.46,43.65,8.18,5.77,17.29,2.68,25.77-.35,27.78-9.92,58-3.12,80.52,16.85,28.37,25.15,35.58,64.22,36.66,92.56,1.18,31.75-12.3,67.11-36.1,94.69"/></g></g></svg>